<?xml version="1.0" standalone="no"?>
<!DOCTYPE svg PUBLIC "-//W3C//DTD SVG 1.1//EN" "http://www.w3.org/Graphics/SVG/1.1/DTD/svg11.dtd">
<svg xmlns="http://www.w3.org/2000/svg">
<metadata>Copyright (C) 2025 by original authors @ fontello.com</metadata>
<defs>
<font id="g-cartografia" horiz-adv-x="1000" >
<font-face font-family="g-cartografia" font-weight="400" font-stretch="normal" units-per-em="1000" ascent="850" descent="-150" />
<missing-glyph horiz-adv-x="1000" />
<glyph glyph-name="check" unicode="&#xe801;" d="M249 0q-34 0-56 28l-180 236q-16 24-12 52t26 46 51 14 47-28l118-154 296 474q16 24 43 30t53-8q24-16 30-43t-8-53l-350-560q-20-32-56-32z" horiz-adv-x="667" />

<glyph glyph-name="check5" unicode="&#xe80d;" d="M500 850c-276 0-500-224-500-500s224-500 500-500c276 0 500 224 500 500s-224 500-500 500z m0-906c-224 0-406 182-406 406s182 406 406 406 406-182 406-406-182-406-406-406z m247 406c0-136-111-247-247-247-136 0-247 111-247 247 0 136 111 247 247 247 136 0 247-111 247-247z" horiz-adv-x="1000" />

<glyph glyph-name="escala" unicode="&#xe812;" d="M631 673c0 55-45 100-101 100-55 0-101-45-101-100 0-44 29-81 69-95h-61v-86h61v-39h-61v-43h61v-37h-61v-43h61v-38h-61v-43h61v-37h-61v-43h61v-38h-61v-43h61v-14c-27-13-45-39-45-70 0-43 34-78 77-78s77 35 77 78c0 31-18 57-45 70v14h69v43h-69v38h69v43h-69v37h69v43h-69v38h69v43h-69v37h69v43h-69v39h69v86h-69c40 14 69 51 69 95z m-158 0c0 32 25 57 57 57 32 0 58-25 58-57 0-32-26-58-58-58-32 0-57 26-57 58z m91-669c0-19-15-34-34-34s-34 15-34 34c0 19 15 34 34 34 19 0 34-15 34-34z" horiz-adv-x="1000" />

<glyph glyph-name="escala2" unicode="&#xe813;" d="M986-66l-395 395c95 128 84 309-32 425-128 128-335 128-463 0s-128-335 0-463c116-116 297-126 425-32l395-395c19-19 50-19 70 0 19 20 19 51 0 70z m-496 427c-90-90-235-90-324 0-90 89-90 234 0 323 89 90 234 90 324 0 89-89 89-234 0-323z m-246 95h14v-32h-68v32h16v141l-22-18-9 34 38 27h31v-184z m113-7c0-15-10-25-25-25-14 0-24 11-24 25 0 15 10 26 25 26 13 0 23-11 24-26z m0 109c0-14-10-25-25-25-14 0-24 11-24 25 0 15 10 26 25 26 13 0 23-11 24-26z m125-102v-32h-67v32h14v141l-22-18-9 34 38 27h31v-184h15z" horiz-adv-x="1000" />

<glyph glyph-name="brujula-norte" unicode="&#xe900;" d="M153 710c-199-192-205-509-13-707s509-205 707-13c199 192 205 509 13 707s-509 205-707 13z m629-652c-161-156-418-151-574 10-156 161-151 418 10 574 161 156 418 151 574-10s151-418-10-574z m-288-37c0 0 124 252 126 327 1 75-114 332-114 332s-124-253-126-328c-1-75 114-331 114-331z m-43 316l98-2c24 0-52-169-52-169s-70 172-46 171z" horiz-adv-x="1000" />

<glyph glyph-name="capas2" unicode="&#xe901;" d="M76 545l411-219c4-2 9-3 13-3s9 1 13 3l411 219c9 5 14 15 14 25 0 10-5 19-14 24l-411 220c-8 4-18 4-26 0l-411-220c-8-5-14-14-14-24 0-10 6-20 14-25z m424 197l333-172-333-167-333 167 333 172z m424-368l-120 64c-13 7-41 3-48-10-7-14-5-37 8-44l61-34-325-161-325 161 62 34c13 7 13 30 6 43-8 14-33 19-46 12l-121-65c-8-5-14-14-14-24s5-20 14-24l411-220c4-2 9-3 13-3s9 1 13 3l411 220c9 4 14 14 14 24 0 10-5 19-14 24z m0-219l-116 62c-14 7-41 1-48-12-7-14-5-36 8-43l57-32-325-161-325 161 56 32c14 7 15 29 8 43s-34 18-47 11l-116-61c-8-5-14-14-14-25s5-19 14-24l411-220c4-2 9-3 13-3s9 1 13 3l411 220c9 5 14 14 14 24s-5 20-14 25z" horiz-adv-x="1000" />

<glyph glyph-name="comentarios" unicode="&#xe902;" d="M807 803h-613c-92 0-166-74-166-166v-378c0-91 74-165 166-165l390 0 187-187c6-7 15-10 23-10 5 0 9 1 13 3 12 5 20 17 20 30v165c82 10 145 80 145 164v378c0 92-74 166-165 166z m89-541c0-53-43-97-97-97h-8c-18 0-32-14-32-32v-114l-137 137c-6 6-14 9-23 9h-398c-54 0-97 44-97 97v369c0 54 43 97 97 97h598c54 0 97-43 97-97v-369z m-152 316c23 0 43-19 43-43v0c0-23-20-43-43-43v0h-488c-23 0-43 20-43 43v0c0 24 20 43 43 43v0h488z m0-185c23 0 43-19 43-43v0c0-24-20-43-43-43v0h-488c-23 0-43 19-43 43v0c0 24 20 43 43 43v0h488z" horiz-adv-x="1000" />

<glyph glyph-name="escala3" unicode="&#xe903;" d="M939 554h-872c-22 0-41-18-41-40v-324c0-22 19-40 41-40h872c22 0 40 18 40 40h0v324c0 22-18 40-40 40z m-30-309c0-15-12-27-27-27h-763c-14 0-26 12-26 27v213c0 15 12 27 26 27h763c15 0 27-12 27-27v-213z m-590 181h-127c-7 0-13-5-13-12v-128c0-7 6-12 13-12h127c7 0 13 5 13 12v128c0 7-6 12-13 12z m245 0h-128c-7 0-12-5-12-12v-128c0-7 5-12 12-12h128c7 0 12 5 12 12v128c0 7-5 12-12 12z m245 0h-128c-7 0-12-5-12-12v-128c0-7 5-12 12-12h128c6 0 12 5 12 12v128c0 7-6 12-12 12z" horiz-adv-x="1000" />

<glyph glyph-name="flecha" unicode="&#xe904;" d="M983 122l-182 182 158 158c14 14 20 35 15 54-4 19-18 35-37 41l-861 288c-21 7-44 2-59-14-16-15-21-38-14-59l288-861c6-19 22-33 41-38 19-4 40 2 54 16l162 162 182-182c11-11 26-17 41-17 14 0 29 6 40 17l172 172c23 22 23 59 0 81z m-202-148l-185 183c-12 12-28 19-44 19s-32-7-45-19l-149-149-242 724 724-242-145-145c-24-25-24-65 0-89l185-183-99-99z" horiz-adv-x="1000" />

<glyph glyph-name="flecha-abajo" unicode="&#xe905;" d="M505 254l-346 346c-30 30-72 30-102 0-30-29-30-74 0-104l397-397c15-15 30-21 51-21s36 6 51 21l397 397c14 15 20 33 20 51 0 18-6 39-20 53-30 30-72 30-102 0l-346-346z" horiz-adv-x="1000" />

<glyph glyph-name="flecha-arriba" unicode="&#xe906;" d="M503 447l347-346c29-30 71-30 101 0 30 29 30 74 0 104l-397 397c-15 15-30 21-51 21s-35-6-50-21l-397-397c-15-15-21-33-21-51 0-18 6-38 21-53 30-30 71-30 101 0l346 346z" horiz-adv-x="1000" />

<glyph glyph-name="flecha-derecha" unicode="&#xe907;" d="M600 351l-346-346c-30-30-30-72 0-101 30-30 75-30 105 0l397 397c14 14 20 29 20 50s-6 36-20 51l-397 397c-15 15-33 21-51 21-18 0-39-6-54-21-30-30-30-72 0-102l346-346z" horiz-adv-x="1000" />

<glyph glyph-name="flecha-izquierda" unicode="&#xe908;" d="M408 350l346 346c30 30 30 72 0 101-30 30-75 30-104 0l-397-396c-15-15-21-30-21-51s6-36 21-51l397-397c15-15 32-21 50-21 18 0 39 6 54 21 30 30 30 72 0 102l-346 346z" horiz-adv-x="1000" />

<glyph glyph-name="gps2" unicode="&#xe909;" d="M951 399h-57c-20 182-164 327-345 350v52c0 27-22 49-49 49-27 0-49-22-49-49v-52c-181-23-325-168-344-350h-58c-27 0-49-22-49-49 0-27 22-49 49-49h59c25-176 166-315 343-337v-65c0-27 22-49 49-49 27 0 49 22 49 49v65c177 22 318 161 343 337h59c27 0 49 22 49 49 0 27-22 49-49 49z m-451-342c-165 0-299 134-299 299 0 165 134 299 299 299 165 0 299-134 299-299 0-165-134-299-299-299z m0 464c-91 0-165-74-165-165 0-91 74-165 165-165 91 0 165 74 165 165 0 91-74 165-165 165z" horiz-adv-x="1000" />

<glyph glyph-name="info" unicode="&#xe90a;" d="M500 600c-34 0-62-28-62-62s28-63 62-63 63 28 63 63c0 34-28 62-63 62z m0-187c-34 0-62-28-62-63v-187c0-35 28-63 62-63s63 28 63 63v187c0 35-28 63-63 63z m0 437c-276 0-500-224-500-500s224-500 500-500c276 0 500 224 500 500s-224 500-500 500z m0-906c-224 0-406 182-406 406s182 406 406 406c224 0 406-182 406-406s-182-406-406-406z" horiz-adv-x="1000" />

<glyph glyph-name="papelera" unicode="&#xe90b;" d="M890 694h-202v94c0 34-28 62-62 62h-250c-35 0-63-28-63-62v-94h-202c-26 0-47-21-47-47s21-47 47-47h46v-688c0-34 28-62 62-62h563c34 0 62 28 62 62v688h46c26 0 47 21 47 47s-21 47-47 47z m-483 62h187v-62h-187v62z m344-812h-500v656h500v-656z m-290 142v351c0 23 17 39 40 39 22 0 39-16 39-39v-351c0-22-17-39-39-39-23 0-40 17-40 39z m154 0v351c0 23 17 39 40 39s39-16 39-39v-351c0-22-17-39-39-39-23 0-40 17-40 39z m-308 0v351c0 23 17 39 40 39s39-16 39-39v-351c0-22-17-39-39-39-23 0-40 17-40 39z" horiz-adv-x="1000" />

<glyph glyph-name="pin" unicode="&#xe90c;" d="M477-129c-6 2-12 5-18 8v0c-12 6-23 14-34 23v0c-23 18-48 43-74 72v0c-53 59-110 137-156 217v0c-30 54-56 110-71 163v0c-9 30-14 60-14 89v0c0 108 44 205 115 276v0c70 70 168 114 275 114v0c107 0 205-44 276-114v0c70-71 114-168 114-276v0c0-36-8-73-20-110v0c-13-38-30-77-50-115v0c-41-76-93-151-143-211v0c-34-41-66-75-95-100v0c-17-14-32-25-49-32v0c-9-4-19-8-33-8v0 0c-9 0-16 2-23 4v0z m-190 786c-55-55-89-130-89-214v0c0-21 5-49 15-78v0c9-30 23-63 40-96v0c34-66 80-134 125-190v0c30-38 59-70 83-92v0c14-13 27-23 35-28v0c1-1 3-2 4-2v0c5 2 12 7 20 14v0c18 14 40 35 64 62v0c48 54 102 128 144 202v0c29 49 51 99 63 143v0c7 24 11 47 11 65v0c0 84-34 159-89 214v0c-54 54-130 88-213 88v0c-83 0-158-34-213-88v0z m213-444c-63 0-121 26-163 67v0c-42 42-68 100-68 163v0c0 64 26 122 68 163v0c42 42 100 68 163 68v0-88c-39 0-75-16-101-42v0c-26-26-41-61-42-101v0c1-39 16-74 42-100v0c26-26 62-42 101-42v0c39 0 75 16 101 42v0c26 26 42 61 42 100v0c0 40-16 75-42 101v0c-26 26-62 42-101 42v0 88c64 0 121-26 163-68v0c42-41 68-99 68-163v0c0-63-26-121-68-163v0c-42-41-99-67-163-67v0c0 0 0 0 0 0v0z" horiz-adv-x="1000" />

<glyph glyph-name="posicion3" unicode="&#xe90d;" d="M875 38c0-129-194-188-375-188-181 0-375 59-375 188 0 106 133 165 281 182v-64c-126-16-218-63-218-118 0-70 139-126 312-126 173 0 313 56 313 126 0 55-93 102-219 118v64c148-17 281-76 281-182z m-375 812c-121 0-219-98-219-219 0-110 82-200 188-215v-378h62v378c106 15 188 105 188 215 0 121-98 219-219 219z m-62-187c-35 0-63 28-63 62s28 63 63 63c34 0 62-28 62-63s-28-62-62-62z" horiz-adv-x="1000" />

<glyph glyph-name="zoom-extension" unicode="&#xe90e;" d="M979 650v-604c0-22-8-41-23-56-16-16-35-24-57-24h-795c-22 0-40 8-56 24-15 15-23 34-23 56v604c0 22 8 41 23 56s34 24 56 24h795c22 0 41-8 57-24s23-34 23-56z m-89 1h-776c-4 0-8-2-11-5s-4-6-4-10v-576c0-4 1-7 4-10s7-5 11-5h776c4 0 7 2 11 5s4 6 4 10v576c0 4-1 7-4 10-4 3-7 5-11 5z m-249-366c14 14 24 30 31 48 7 17 11 35 11 53 0 19-4 37-11 55-7 17-17 33-31 47-14 14-30 25-48 32-17 6-36 10-54 10s-37-4-54-10c-18-7-34-18-48-32-14-14-24-30-31-47s-11-36-11-55c0-18 4-36 11-53 7-18 17-34 31-48 14-14 30-24 48-31 17-7 35-11 54-11 18 0 37 4 54 11 18 7 34 17 48 31z m45 249c21-20 36-43 46-69 10-26 15-52 15-78s-5-53-15-79c-10-25-25-48-46-69-16-16-34-29-54-39-20-10-41-16-62-20-22-3-43-3-65 1-22 4-42 11-62 21l-94-94c-5-6-11-10-18-12-6-3-13-4-20-4s-14 1-21 4c-6 2-12 6-18 12-5 5-9 11-12 18-2 6-4 13-4 20s2 14 4 21c3 6 7 12 12 18l91 90c-13 20-22 42-27 65-5 23-6 46-4 69 2 22 8 45 18 66 10 22 24 42 42 59 20 20 43 35 69 45 25 10 51 16 78 16 27 0 53-6 78-16 26-10 49-25 69-45z" horiz-adv-x="1000" />

<glyph glyph-name="spinner" unicode="&#xe90f;" d="M294 72q0-29-21-50t-51-21q-29 0-50 21t-21 50q0 30 21 51t50 21 51-21 21-51z m277-115q0-29-20-50t-51-21-50 21-21 50 21 51 50 21 51-21 20-51z m-392 393q0-30-21-50t-51-21-50 21-21 50 21 51 50 20 51-20 21-51z m670-278q0-29-21-50t-50-21q-30 0-51 21t-20 50 20 51 51 21 50-21 21-51z m-538 556q0-37-26-63t-63-26-63 26-26 63 26 63 63 26 63-26 26-63z m653-278q0-30-21-50t-50-21-51 21-21 50 21 51 51 20 50-20 21-51z m-357 393q0-45-31-76t-76-31-76 31-31 76 31 76 76 31 76-31 31-76z m296-115q0-52-37-88t-88-37q-52 0-88 37t-37 88q0 51 37 88t88 37q51 0 88-37t37-88z" horiz-adv-x="1000" />

<glyph glyph-name="warning" unicode="&#xe910;" d="M500 759l419-835h-838l419 835z m0 91c-22 0-43-14-59-44l-427-850c-33-58-5-106 62-106h849c66 0 94 48 61 106h0l-426 850c-17 30-38 44-60 44v0z m63-812c0-35-28-63-63-63s-62 28-62 63c0 34 28 62 62 62s63-28 63-62z m-63 125c-34 0-62 28-62 62v188c0 34 28 62 62 62s63-28 63-62v-188c0-34-28-62-63-62z" horiz-adv-x="1000" />

<glyph glyph-name="notification" unicode="&#xe911;" d="M500 756c-108 0-210-42-287-119s-119-178-119-287c0-108 42-210 119-287s179-119 287-119c109 0 211 42 287 119s119 179 119 287c0 109-42 211-119 287s-178 119-287 119z m0 94v0c276 0 500-224 500-500s-224-500-500-500c-276 0-500 224-500 500s224 500 500 500z m-62-687h125v-125h-125z m0 500h125v-375h-125z" horiz-adv-x="1000" />

<glyph glyph-name="cancelar" unicode="&#xe912;" d="M601 352l256-256c29-29 29-74 0-103-14-14-34-22-52-22-18 0-38 8-51 22l-256 255-255-255c-14-14-34-22-52-22s-38 8-51 22c-30 29-30 74 0 103l255 256-255 255c-30 29-30 74 0 103s74 29 103 0l255-255 256 255c29 29 73 29 103 0s29-74 0-103l-256-255z" horiz-adv-x="1000" />

<glyph glyph-name="implementacion" unicode="&#xe913;" d="M192 350c0 170 138 308 308 308s308-138 308-308-138-308-308-308-308 138-308 308z m184-222c-12 20-24 44-32 70h-48c22-30 48-54 80-70z m-112 120h66c-6 24-8 50-10 76h-74c2-26 8-52 18-76z m0 204c-10-24-16-50-20-76h74c2 26 4 52 10 76h-64z m32 52h48c8 26 20 50 32 70-32-18-58-42-80-70z m178 96c-28-14-56-48-76-96h76v96z m0-148h-92c-6-24-8-50-10-76h102v76z m0-128h-102c2-28 4-54 10-76h92v76z m0-128h-76c20-48 46-82 76-96v96z m148 378c12-20 24-44 32-70h48c-20 28-48 52-80 70z m112-122h-66c6-24 8-50 10-76h74c-2 26-8 52-18 76z m0-204c10 24 16 50 20 76h-74c-2-26-4-52-10-76h64z m-32-52h-48c-8-26-20-50-32-70 32 18 60 42 80 70z m-178-96c28 14 56 48 76 96h-76v-96z m0 148h92c6 24 8 50 10 76h-102v-76z m0 128h102c-2 28-4 54-10 76h-92v-76z m0 128h76c-20 48-46 82-76 96v-96z m474 68c-4-14-18-22-32-18l-48 12c34-66 54-138 54-218 0-222-154-408-360-460 0 4 2 8 2 12 0 14-4 28-12 40 182 46 318 212 318 408 0 68-16 132-46 188l-12-42c-4-14-18-22-32-18-6 2-12 6-16 12-4 6-4 12-2 20l28 104c4 14 18 22 32 18l104-28c18-2 26-16 22-30z m-906-108l0 0c-10-36-16-74-16-114 0-224 176-408 398-420l-32 32c-10 10-10 26 0 36 6 4 12 8 18 8s14-4 18-8l76-76c10-10 10-26 0-36l-76-76c-10-10-26-10-36 0s-10 26 0 36l34 34c-250 10-450 216-450 470 0 46 6 90 18 130 14-10 30-16 48-16z m710 180c-76 78-184 128-302 128-146 0-276-76-352-190l42 12c14 4 28-4 32-18 2-6 0-14-2-20-4-6-8-10-16-12l-104-28c-14-4-28 4-32 18l-28 104c-4 14 4 28 18 32 14 4 28-4 32-18l12-48c84 132 230 218 398 218 134 0 254-56 340-146-16-4-30-16-38-32z" horiz-adv-x="1000" />

<glyph glyph-name="cancelar2" unicode="&#xe914;" d="M687 493c0 11-5 22-13 31-9 8-20 13-31 13-13 1-26-4-36-13l-107-108-107 108c-10 9-23 14-35 13-12 0-23-5-32-13-8-9-13-20-13-31-1-13 4-26 13-35l108-108-108-107c-9-10-14-23-13-35 0-12 5-23 13-32 9-8 20-13 32-13 12-1 25 4 35 13l107 108 108-108c9-9 22-14 35-13 11 0 22 5 31 13 8 9 13 20 13 32 1 12-4 25-13 35l-108 107 108 107c9 10 14 23 13 36z m-187 357c-276 0-500-224-500-500s224-500 500-500c276 0 500 224 500 500s-224 500-500 500z m0-906c-224 0-406 182-406 406s182 406 406 406 406-182 406-406c0-224-182-406-406-406z" horiz-adv-x="1000" />

<glyph glyph-name="check2" unicode="&#xe915;" d="M732 707h-464q-37 0-63-26t-26-63v-464q0-37 26-63t63-27h464q37 0 63 27t26 63v464q0 37-26 63t-63 26z m161-89v-464q0-67-47-114t-114-47h-464q-66 0-114 47t-47 114v464q0 66 47 113t114 48h464q67 0 114-48t47-113z" horiz-adv-x="1000" />

<glyph glyph-name="flecha-abajo2" unicode="&#xe916;" d="M500 850c-276 0-500-224-500-500s224-500 500-500c276 0 500 224 500 500s-224 500-500 500z m0-906c-224 0-406 182-406 406s182 406 406 406c224 0 406-182 406-406s-182-406-406-406z m172 531c-14 0-26-6-35-15l0 0-137-150-137 150 0 0c-9 9-21 15-35 15-26 0-47-21-47-47 0-12 5-23 13-31l0-1 171-187c9-10 22-15 35-15s26 5 35 15l171 187 0 1c8 8 13 19 13 31 0 26-21 47-47 47z" horiz-adv-x="1000" />

<glyph glyph-name="check3" unicode="&#xe917;" d="M732 707h-464c-25 0-46-9-63-26s-26-39-26-63v-464c0-25 8-46 26-63s38-27 63-27h464c25 0 46 9 63 27s26 38 26 63v464c0 24-8 45-26 63s-38 26-63 26z m161-89v-464c0-45-16-83-47-114s-70-47-114-47h-464c-44 0-82 16-114 47s-47 69-47 114v464c0 44 16 82 47 113s70 48 114 48h464c44 0 82-16 114-48s47-69 47-113z m-185-67c-12 1-25-3-35-13l-216-216-122 123c-10 9-23 13-35 13-12-1-23-5-31-13-9-9-13-20-14-32 0-12 4-25 14-34l155-156c9-9 21-14 33-14s24 5 33 14l249 249c10 10 14 22 14 35-1 11-5 22-14 31-8 9-19 13-31 13z" horiz-adv-x="1000" />

<glyph glyph-name="flecha-arriba2" unicode="&#xe918;" d="M706 304l-171 187c-9 10-22 15-35 15s-26-5-35-15l-171-187 0 0c-8-9-13-20-13-32 0-26 21-47 47-47 14 0 26 6 35 15l0 0 137 150 137-150 0 0c9-9 21-15 35-15 26 0 47 21 47 47 0 12-5 23-13 32l0 0z m-206 546c-276 0-500-224-500-500s224-500 500-500c276 0 500 224 500 500s-224 500-500 500z m0-906c-224 0-406 182-406 406s182 406 406 406c224 0 406-182 406-406s-182-406-406-406z" horiz-adv-x="1000" />

<glyph glyph-name="check4" unicode="&#xe919;" d="M500 850c-276 0-500-224-500-500s224-500 500-500c276 0 500 224 500 500s-224 500-500 500z m0-906c-224 0-406 182-406 406s182 406 406 406 406-182 406-406-182-406-406-406z" horiz-adv-x="1000" />

<glyph glyph-name="flecha-derecha2" unicode="&#xe91a;" d="M454 556l0 0c-9 8-20 13-32 13-26 0-47-21-47-47 0-14 6-26 15-35l0 0 150-137-150-137 0 0c-9-9-15-21-15-35 0-26 21-47 47-47 12 0 23 5 32 13l0 0 187 171c10 9 15 22 15 35s-5 26-15 35l-187 171z m46 294c-276 0-500-224-500-500s224-500 500-500c276 0 500 224 500 500s-224 500-500 500z m0-906c-224 0-406 182-406 406s182 406 406 406c224 0 406-182 406-406s-182-406-406-406z" horiz-adv-x="1000" />

<glyph glyph-name="flecha-derecha3" unicode="&#xe91b;" d="M250-83c239-138 545-56 683 183 138 239 56 545-183 683-239 138-545 56-683-183-138-239-56-545 183-683z m-96 633c110 191 355 257 546 146 191-110 257-355 146-546-110-191-355-257-546-146-191 110-257 355-146 546z m121-200v0c0-28 22-50 50-50h209l-56-56c-20-20-20-51 0-71 19-19 51-19 70 0l142 142c19 19 19 51 0 70l-142 142c-19 19-51 19-70 0-20-20-20-51 0-71l56-56h-209c-28 0-50-22-50-50z" horiz-adv-x="1000" />

<glyph glyph-name="flecha-deshacer" unicode="&#xe91c;" d="M0 772v-250c0-26 21-47 47-47h250c26 0 47 21 47 47s-21 47-47 47h-139c74 116 202 187 342 187 224 0 406-182 406-406s-182-406-406-406c-165 0-313 98-376 251-5 12-14 21-25 25s-24 5-36 1c-12-5-21-15-25-26-5-11-5-24 0-36 77-188 259-309 462-309 276 0 500 224 500 500s-224 500-500 500c-163 0-313-78-406-209v131c0 26-21 47-47 47s-47-21-47-47z" horiz-adv-x="1000" />

<glyph glyph-name="check-circle" unicode="&#xe91d;" d="M500 850c-276 0-500-224-500-500s224-500 500-500 500 224 500 500-224 500-500 500z m0-906c-224 0-406 182-406 406s182 406 406 406 406-182 406-406-182-406-406-406z m205 562c-13 0-25-4-35-13l-217-217-123 123c-10 9-22 14-35 13-11 0-23-5-31-13-9-9-13-20-14-31 0-13 4-26 14-35l156-157c9-9 21-13 33-13s24 4 33 13l250 250c10 10 14 23 14 35-1 12-5 23-14 32-8 8-20 12-31 13z" horiz-adv-x="1000" />

<glyph glyph-name="flecha-izquierda2" unicode="&#xe91e;" d="M578 569c-12 0-23-5-31-13l-1 0-187-171c-10-9-15-22-15-35s5-26 15-35l187-171 1 0c8-8 19-13 31-13 26 0 47 21 47 47 0 14-6 26-15 35l0 0-150 137 150 137 0 1c9 8 15 20 15 34 0 26-21 47-47 47z m-78 281c-276 0-500-224-500-500s224-500 500-500 500 224 500 500-224 500-500 500z m0-906c-224 0-406 182-406 406s182 406 406 406c224 0 406-182 406-406s-182-406-406-406z" horiz-adv-x="1000" />

<glyph glyph-name="flecha-izquierda3" unicode="&#xe91f;" d="M933 600c-138 239-444 321-683 183-239-138-321-444-183-683 138-239 444-321 683-183 239 138 321 444 183 683z m-233-596c-191-111-436-45-546 146-111 191-45 436 146 546 191 111 436 45 546-146 111-191 45-436-146-546z m-25 396h-209l57 56c19 20 19 51 0 71-20 19-52 19-71 0l-142-142c-19-19-19-51 0-70l142-142c19-19 51-19 71 0 19 20 19 51 0 71l-57 56h209c28 0 50 22 50 50v0c0 28-22 50-50 50z" horiz-adv-x="1000" />

<glyph glyph-name="flecha-link" unicode="&#xe920;" d="M732 707h-464c-25 0-46-9-63-26-18-18-26-39-26-63v-464c0-25 8-46 26-63 17-18 38-27 63-27h464c25 0 46 9 63 27s26 38 26 63v464c0 24-8 45-26 63s-38 26-63 26z m161-89v-464c0-45-16-83-47-114s-70-47-114-47h-464c-44 0-82 16-114 47-31 31-47 69-47 114v464c0 44 16 82 47 113s70 48 114 48h464c44 0 82-16 114-48 31-31 47-69 47-113z m-153-30v-205c0-20-15-35-35-35-21 0-36 15-36 35l-1 118-217-217c-14-14-36-14-50 0-14 14-14 36 0 50l217 217h-117c-20 0-36 16-36 37 0 20 15 35 35 35h205c9 0 18-4 25-10 6-7 10-16 10-25z" horiz-adv-x="1000" />

<glyph glyph-name="flechas-mover" unicode="&#xe921;" d="M949 383l-142 143c-18 17-43 17-59 0-17-18-17-43 0-61l68-70h-275v281l68-68c8-8 20-12 32-12s21 4 29 12c18 17 18 43 0 60l-141 141c-7 8-19 14-31 14s-21-6-29-14l-143-141c-17-17-17-43 0-60s45-18 61 0l68 68v-281h-275l68 70c18 18 18 43 0 61s-43 17-60 0l-141-143c-8-8-14-17-14-29s6-23 14-31l141-143c7-8 19-12 31-12s21 6 29 14c18 18 18 41 0 59l-68 70h275v-275l-68 68c-18 18-43 16-61 0-17-18-17-45 0-61l143-140c8-8 17-14 29-14s24 6 31 14l141 140c18 18 18 45 0 61-18 18-45 18-61 0l-68-68v275h275l-68-70c-17-18-17-41 0-59 8-8 18-14 29-14s22 4 30 12l142 143c8 8 12 19 12 31s-4 21-12 29z" horiz-adv-x="1000" />

<glyph glyph-name="gps" unicode="&#xe922;" d="M500 850c-276 0-500-224-500-500 0-276 224-500 500-500 276 0 500 224 500 500 0 276-224 500-500 500z m0-912c-227 0-412 185-412 412 0 227 185 412 412 412 227 0 412-185 412-412 0-227-185-412-412-412z m179 628l-434-232c-13-7-20-21-17-35 3-14 15-25 29-26l160-14 13-159c1-15 12-27 26-30 2 0 5 0 7 0 12 0 23 6 29 17l232 435c6 12 4 28-6 38-10 10-26 13-39 6z" horiz-adv-x="1000" />

<glyph glyph-name="gps3" unicode="&#xe923;" d="M500 850c-276 0-500-224-500-500s224-500 500-500 500 224 500 500-224 500-500 500z m0-913c-228 0-413 185-413 413s185 413 413 413 413-185 413-413c0-228-185-413-413-413z m273 413c0-151-122-273-273-273-151 0-273 122-273 273 0 151 122 273 273 273 151 0 273-122 273-273z" horiz-adv-x="1000" />

<glyph glyph-name="gps4" unicode="&#xe925;" d="M500 850c-276 0-500-224-500-500s224-500 500-500c276 0 500 224 500 500s-224 500-500 500z m48-900v110c0 26-21 48-48 48s-48-22-48-48v-110c-184 22-330 168-352 352h110c26 0 48 21 48 48s-22 48-48 48h-110c22 184 168 330 352 352v-110c0-26 21-48 48-48s48 22 48 48v110c184-22 330-168 352-352h-110c-26 0-48-21-48-48s22-48 48-48h110c-22-184-168-330-352-352z" horiz-adv-x="1000" />

<glyph glyph-name="guardar" unicode="&#xe926;" d="M987 574c-9 21-19 37-31 49l-183 183c-12 12-28 22-49 31-21 9-40 13-57 13h-604c-18 0-33-6-45-18-12-12-18-27-18-44v-876c0-17 6-32 18-44 12-12 27-18 45-18h875c17 0 32 6 44 18 12 12 18 27 18 44v605c0 17-4 36-13 57z m-570 172c0 6 2 10 6 15 4 4 9 6 15 6h125c5 0 10-2 14-6 4-5 6-9 6-15v-208c0-6-2-11-6-15-4-4-9-6-14-6h-125c-6 0-11 2-15 6-4 4-6 9-6 15v208z m333-813h-500v250h500v-250z m167 0h-84v271c0 18-6 32-18 44-12 13-27 19-44 19h-542c-17 0-32-6-44-19-12-12-18-26-18-44v-271h-84v834h84v-271c0-17 6-32 18-44 12-13 27-19 44-19h375c18 0 32 6 44 19 13 12 19 27 19 44v271c6 0 15-2 25-7 11-4 18-8 22-13l183-183c5-4 9-12 13-22 5-11 7-19 7-25v-584z" horiz-adv-x="1000" />

<glyph glyph-name="herramienta" unicode="&#xe927;" d="M969 598c-7 17-22 29-40 32-3 1-6 1-10 1-14 0-28-6-38-16l-167-167c-3-2-6-4-11-4-4 0-8 2-11 4l-94 94c-2 3-4 7-4 11 0 5 2 8 4 11l167 167c13 13 18 31 15 48-3 18-15 33-32 40-48 21-99 31-149 31-85 0-166-30-227-91-59-59-90-139-91-221 0-41 6-82 20-122l-283-282c-13-14-19-32-18-49 1-15 7-29 18-40l177-177c12-12 28-18 44-18s32 6 45 18l282 283c38-13 78-19 117-19 84 0 165 29 226 90 97 97 116 246 60 376z m-126-309c-41-41-98-64-160-64-29 0-59 5-88 15-10 3-19 4-29 4-25 0-49-9-67-27l-260-260-132 132 260 260c25 25 34 62 23 96-10 31-15 62-15 93 1 59 23 115 64 155 40 41 97 63 160 63 17 0 36-2 53-5l-119-120c-21-21-33-48-33-78 0-29 12-56 32-77l94-94c21-21 48-32 77-32s57 11 78 32l120 120c16-80-5-160-58-213z" horiz-adv-x="1000" />

<glyph glyph-name="impresora" unicode="&#xe928;" d="M953 672h-217v129c0 14-13 28-27 28h-422c-14 0-27-14-27-28v-129h-217c-23 0-43-19-43-43v-496c0-23 20-41 43-41h164l-25-172c-4-19 13-37 31-37h570c18 0 32 16 32 33v8l-28 168h166c24 0 43 18 43 41v496c0 24-19 43-43 43z m-623 84h336v-84h-336v84z m-64-793l43 250h379l43-250h-465z m646 213h-137l-13 90c-2 16-16 27-31 27h-465c-16 0-30-11-32-27l-13-90h-137v412h828v-412z m-699 261h137c24 0 42 18 42 42 0 24-18 42-42 42h-137c-24 0-43-18-43-42 0-24 19-42 43-42z" horiz-adv-x="1000" />

<glyph glyph-name="editar2" unicode="&#xe929;" d="M891 381c-26 0-47-21-47-47v-390h-750v750h390c26 0 47 21 47 47s-21 47-47 47h-421c-35 0-63-28-63-63v-813c0-34 28-62 63-62h812c35 0 63 28 63 62v422c0 26-21 47-47 47z m98 324l-134 134c-8 7-17 11-27 11s-19-4-26-11l-521-520v-188h188l520 521c7 7 11 17 11 26 0 10-4 19-11 27z m-551-480h-63v63l453 453 63-63-453-453z" horiz-adv-x="1000" />

<glyph glyph-name="linea" unicode="&#xe92a;" d="M918 773c-47 47-122 47-169 0-34-34-43-83-27-126l-506-506c-42 16-92 7-126-27-47-46-47-122-1-168 47-47 122-47 169 0 34 34 43 83 27 126l506 506c43-16 93-7 127 27 46 46 46 122 0 168z" horiz-adv-x="1000" />

<glyph glyph-name="lineas" unicode="&#xe92b;" d="M654 157c-53 20-109 5-145-32l-236 87c-4 52-37 99-89 118-71 26-149-10-175-81-27-71 10-149 81-175 52-20 108-5 144 32l236-87c4-52 37-99 89-118 71-27 149 10 176 81 26 71-11 149-81 175z m322 592c-43 62-128 78-190 35-46-32-66-86-57-137l-207-143c-45 27-103 27-148-4-62-43-78-128-35-190 43-63 128-78 190-35 46 31 66 85 57 137l207 142c44-27 102-27 148 5 62 42 78 128 35 190z" horiz-adv-x="1000" />

<glyph glyph-name="lista" unicode="&#xe92c;" d="M97 705c-54 0-97-43-97-97s43-97 97-97 97 44 97 97-44 97-97 97z m0-258c-54 0-97-43-97-97 0-53 43-97 97-97s97 44 97 97c0 54-44 97-97 97z m0-258c-54 0-97-44-97-97s43-97 97-97 97 44 97 97c0 53-44 97-97 97z m226 355h613c35 0 64 28 64 64s-29 65-64 65h-613c-36 0-65-29-65-65s29-64 65-64z m613-129h-613c-36 0-65-29-65-65 0-36 29-64 65-64h613c35 0 64 28 64 64 0 36-29 65-64 65z m0-258h-613c-36 0-65-29-65-65s29-65 65-65h613c35 0 64 29 64 65s-29 65-64 65z" horiz-adv-x="1000" />

<glyph glyph-name="localizacion" unicode="&#xe92d;" d="M408 203l23-58c-22-9-45-15-66-20l-13 61c18 4 37 10 56 17z m-186-75c23-6 47-10 72-10l1 62c-19 1-38 3-56 9l-17-61z m492 110c18-4 36-10 53-19l28 56c-22 11-45 19-69 24l-12-61z m-130 51l19-60c19 6 38 10 56 11l-5 63c-23-2-47-7-70-14z m-100-47c-7-5-14-9-21-12l30-55c8 4 16 9 24 14 10 6 21 12 31 18l-28 55c-12-6-24-13-36-20z m172 389c0-25-6-49-17-71l-139-272c0 0-140 275-141 276-10 20-15 43-15 67 0 87 70 157 156 157 86 0 156-70 156-157z m-62 0c0 52-42 94-94 94-52 0-94-42-94-94 0-51 42-93 94-93 52 0 94 42 94 93z m219-156h-147l-32-62h134l67-203-22-24c23-20 35-40 35-40l7 4 58-175h-826l62 188c3-2 4-3 7-5l33 53c-8 5-14 9-19 14l63 188h133c-13 25-24 46-32 62h-146l-188-563h1000l-187 563z" horiz-adv-x="1000" />

<glyph glyph-name="localizacion2" unicode="&#xe92e;" d="M813 756c-87 0-157-70-157-156 0-23 5-45 15-65l142-279 142 279c9 20 14 42 14 65 0 86-70 156-156 156z m0-250c-52 0-94 42-94 94s42 94 94 94 93-42 93-94-42-94-93-94z m46-296l57-113-144-72-48 241 9 9-30 59-15-15-188 125-187-125-125 125-188-375 250-125 250 125 250-125 250 125-105 211-36-70z m-631-185l-144 72 121 241 71-72-48-241z m241 98l-175-87 45 225 130 87v-225z m62 0v225l130-87 45-225-175 87z" horiz-adv-x="1000" />

<glyph glyph-name="localizacion3" unicode="&#xe92f;" d="M920 546c-12-23-25-45-39-67l-6-9c-11-18-24-35-36-52 47-28 72-61 72-93 0-41-40-82-111-115-23-10-49-20-76-27 5 36 9 73 10 111-3-1-6-1-9-1-9 0-17 4-24 11-4 5-15 18-30 37 0-6 0-11 0-16 0-55-5-108-14-158-49-8-102-13-157-13-55 0-108 5-157 13-9 50-14 103-14 158s5 108 14 157c49 9 102 13 157 13 21 0 41 0 61-2-14 22-26 44-37 65-8 1-16 1-24 1-49 0-96-4-142-11 8 28 17 53 28 77 32 70 74 111 114 111 0 0 0 0 0 0 1 0 2 0 2 0 7 22 17 43 30 62-10 1-21 1-32 1 0 0 0 0 0 0h0c0 0 0 0 0 0-262 0-474-213-474-474s212-475 474-475c0 0 0 0 0 0h0c0 0 0 0 0 0 262 0 475 213 475 475 0 79-20 155-55 221z m-558 166c-12-18-24-38-34-61-16-35-29-74-39-116-42-10-81-23-115-38-23-11-43-22-61-35 41 116 133 208 249 250z m-162-273c23 11 49 20 76 27-7-45-10-93-10-141s3-97 10-142c-27 7-53 17-76 27-71 33-111 74-111 115 0 40 40 82 111 114z m-87-252c18-13 38-24 61-34 34-16 73-29 115-39 10-42 23-81 39-116 10-23 22-43 34-61-116 42-208 134-249 250z m387-274c0 0 0 0 0 0-40 0-82 41-114 112-11 23-20 48-28 76 46-7 93-11 142-11 49 0 97 4 142 11-8-28-17-53-28-76-32-71-74-112-114-112z m138 24c12 18 24 38 34 61 16 35 29 74 39 116 42 10 81 23 115 39 23 10 44 21 61 34-41-116-133-208-249-250z m88 422c3 0 6 2 8 4 29 35 175 218 175 305 0 100-82 182-183 182s-182-82-182-182c0-87 146-270 175-305 2-2 5-4 7-4z m-98 319c0 54 44 99 98 99s99-45 99-99-44-98-99-98c-54 0-98 44-98 98z" horiz-adv-x="1000" />

<glyph glyph-name="localizacion4" unicode="&#xe930;" d="M875 225h-125v125h125v-125z m-219 469c0-24-5-46-14-66l-142-278-142 278c-9 20-14 42-14 66 0 86 70 156 156 156 86 0 156-70 156-156z m-62 0c0 52-42 94-94 94-52 0-94-42-94-94s42-94 94-94c52 0 94 42 94 94z m406-94v-625c0-69-56-125-125-125h-750c-69 0-125 56-125 125v625c0 69 56 125 125 125h159c-1-10-3-20-3-31 0-11 2-21 4-31h-35v-188h116l32-62h-148v-250h375v250h-23l86 167v-105h250v125c0 35-28 63-63 63h-160c2 10 4 20 4 31 0 11-2 21-3 31h159c69 0 125-56 125-125z m-812-500h-125v-125c0-35 28-63 62-63h63v188z m0 313h-125v-250h125v250z m0 250h-63c-34 0-62-28-62-63v-125h125v188z m437-563h-375v-188h375v188z m313 0h-250v-188h187c35 0 63 28 63 63v125z m0 313h-250v-250h250v250z" horiz-adv-x="1000" />

<glyph glyph-name="mano" unicode="&#xe931;" d="M128 271c0 24 10 48 30 65 35 32 90 28 122-7l31-35v392c0 48 39 87 87 87 48 0 87-39 87-87v-203c12 7 28 12 44 12 37 0 68-23 81-55 13 8 29 13 46 13 43 0 78-30 86-70 12 7 27 11 43 11 48 0 87-39 87-87l0-212c0-93-84-168-187-168h-186c-56 0-121 36-159 73l-190 213c-14 17-22 37-22 58z m-77 0v0c0-40 15-79 41-109l190-213c1-2 2-3 4-4 25-25 58-48 93-65 41-20 82-30 120-30h186c69 0 134 24 184 69 52 46 80 109 80 176l0 212c0 91-74 165-164 165-1 0-2 0-3 0-30 36-76 59-126 59-6 0-11-1-17-1-5 4-11 9-16 13-19 13-39 21-61 26v117c0 90-74 164-164 164-91 0-165-74-165-164v-252c-2 1-5 1-8 1-44 3-86-12-119-41-35-31-55-76-55-123v0 0z" horiz-adv-x="1000" />

<glyph glyph-name="mano2" unicode="&#xe932;" d="M500 727c70 0 50-107 53-182 3-57-6-144 22-148 1-1 1-1 2-1 32 0 37 109 41 136 6 44 12 131 34 145 8 5 19 8 31 8 21 0 45-9 52-26 12-29-16-120-22-155-8-48-33-138 10-138 0 0 0 0 0 0 23 0 34 35 48 69 13 35 29 70 63 70 3 0 6 0 9-1 56-8 19-90 6-126-48-129-72-199-120-330-6-16-21-63-25-65-17-10-141-12-160-12-36 0-122 1-160 12-18 5-51 55-65 74-50 68-65 98-117 161-22 26-58 57-59 77-1 28 32 48 49 49 1 0 1 0 2 0 29 0 56-30 75-49 9-9 44-57 66-57 2 0 4 1 5 1 22 10-3 65-12 87-25 63-46 107-68 163-10 26-30 64-28 86 3 30 29 47 54 47 2 0 3 0 5 0 46-5 59-78 74-114 11-28 23-64 43-99 0 0 14-25 21-25 0 0 1 0 1 0 21 4 12 119 12 154-1 78-27 178 46 188 4 1 8 1 12 1z m0 74c-7 0-15-1-22-2-57-8-97-46-110-105-2-9-3-19-4-28-23 20-47 27-66 29-4 0-8 0-12 0-66 0-121-48-127-113-3-36 13-73 26-105 3-5 5-11 7-15 6-16 12-31 19-46-6 1-11 2-17 2-1 0-3 0-4 0-32-2-65-18-89-44-22-23-33-53-31-83 2-41 30-71 57-100 7-7 13-14 18-20 31-38 48-63 70-94 12-18 26-38 44-63 2-2 4-5 6-8 35-49 61-82 97-93 36-11 93-15 182-15 11 0 48 0 85 2 72 4 95 10 112 20 24 14 33 36 39 54 4 10 8 21 12 32 2 6 4 13 6 17 24 67 43 119 61 169 18 48 36 97 59 161 1 2 2 5 3 9 17 43 42 109 11 164-17 27-44 46-78 51-6 1-13 2-20 2-10 0-20-2-30-4 9 46 11 82-1 112-18 43-65 72-120 72-27 0-52-7-72-21-1-1-3-2-4-3-6 12-13 22-22 31-22 23-52 35-85 35v0z" horiz-adv-x="1000" />

<glyph glyph-name="mapa" unicode="&#xe933;" d="M953 731l-219 101c-3 2-9 2-15 2s-12 0-16-2l-205-95-205 95c-4 2-10 2-16 2s-11 0-15-2l-221-101c-14-6-21-22-21-35v-664c0-20 15-38 37-38 6 0 9 2 15 4l205 94 205-94c4-2 10-4 16-4s12 2 16 4l205 94 203-94c6-2 10-4 16-4 21 0 37 18 37 38v664c0 13-8 29-22 35z m-713-574l-146-67v582l146 69v-584z m221-67l-146 67v584l146-69v-582z m221 67l-147-67v582l147 69v-584z m218-67l-144 67v584l144-69v-582z" horiz-adv-x="1000" />

<glyph glyph-name="mas" unicode="&#xe934;" d="M805 479c35 0 62-29 62-64s-27-65-62-65h-242v-242c0-35-30-63-65-63s-64 28-64 63v242h-243c-35 0-64 29-64 65s29 64 64 64h243v242c0 35 29 65 64 65s65-30 65-65v-242h242z" horiz-adv-x="1000" />

<glyph glyph-name="mas2" unicode="&#xe935;" d="M532 583c-9 8-20 13-32 13-12 0-23-5-32-13-9-8-15-20-15-34l0-152-152 0c-13 0-25-6-34-15-8-9-13-20-13-32 0-12 5-23 13-31 9-10 21-16 34-16l152 0v-152c0-13 6-25 15-34 9-8 20-13 32-13 12 0 23 5 32 13 9 9 15 21 15 34v152h152c14 0 26 6 34 15 8 9 13 20 13 32 0 12-5 23-13 32-8 9-20 15-34 15h-152v152c0 14-6 26-15 34z m-386 121c-195-196-195-512 0-708s512-195 708 0 195 512 0 708c-196 195-512 195-708 0z m641-641c-158-159-416-159-574 0-159 158-159 416 0 574s416 159 574 0c159-158 159-416 0-574z" horiz-adv-x="1000" />

<glyph glyph-name="medir-area" unicode="&#xe936;" d="M962 224h-919v-345h919v345z m-862-287v229h86v-114h58v114h57v-57h58v57h57v-114h58v114h57v-57h58v57h57v-114h58v114h57v-57h57v57h87v-229h-805z m287 389v0h-24l-135 234 135 234h270l136-234-136-234h-246z m199 82l88 152-88 152h-176l-87-152 87-152h176z" horiz-adv-x="1000" />

<glyph glyph-name="medir-linea" unicode="&#xe937;" d="M961 576c0 53-43 95-95 95-38 1-71-22-86-55l-571 0c-15 33-48 56-86 56-53 0-95-43-95-95 0-52 42-95 95-95 38 0 71 23 86 56l571 0c14-33 47-56 86-56 52 0 95 42 95 94z m1-352h-919v-345h919v345z m-862-287v229h86v-114h58v114h57v-57h58v57h57v-114h58v114h57v-57h58v57h57v-114h58v114h57v-57h57v57h87v-229h-805z" horiz-adv-x="1000" />

<glyph glyph-name="menos" unicode="&#xe938;" d="M805 346h-614c-39 0-68 29-68 69s29 68 68 68h614c39 0 68-29 68-68s-29-69-68-69z" horiz-adv-x="1000" />

<glyph glyph-name="menos2" unicode="&#xe939;" d="M547 303h152c14 0 26 6 34 15 8 9 13 20 13 32 0 12-5 23-13 32-8 9-20 15-34 15h-152z m8 94l-254 0c-13 0-25-6-34-15-8-9-13-20-13-32 0-12 5-23 13-31 9-10 21-16 34-16l254 0z m-409 307c-195-196-195-512 0-708s512-195 708 0 195 512 0 708c-196 195-512 195-708 0z m641-641c-158-159-416-159-574 0-159 158-159 416 0 574s416 159 574 0c159-158 159-416 0-574z" horiz-adv-x="1000" />

<glyph glyph-name="menu" unicode="&#xe93a;" d="M152 655c-39 0-68 29-68 68s29 70 68 70h690c39 0 70-31 70-70s-31-68-70-68h-690z m690-170c39 0 70-31 70-70s-31-69-70-69h-690c-39 0-68 29-68 69s29 70 68 70h690z m0-311c39 0 70-29 70-68s-31-70-70-70h-690c-39 0-68 31-68 70s29 68 68 68h690z" horiz-adv-x="1000" />

<glyph glyph-name="mundo" unicode="&#xe93b;" d="M500 817v0c-257 0-467-210-467-467 0-257 210-467 467-467 257 0 467 210 467 467 0 257-210 467-467 467z m-16-820c-8 6-19 16-29 30-10 15-20 34-29 56-24 60-39 139-43 225h234c-3-86-19-165-43-225-12-30-26-53-39-69-7-7-13-13-19-17-6-3-11-4-16-4-4 0-10 1-16 4z m-186 311c4-96 21-186 49-256 10-25 21-46 33-64-139 46-243 170-260 320h178z m-178 84c17 150 121 274 260 320-12-18-23-39-33-63-28-71-45-161-49-257v0h-178z m582 0c-4 96-21 186-49 257-10 24-21 45-32 63 138-46 242-170 259-320h-178z m-85 0h-234c4 86 19 165 43 225 12 30 26 54 39 69 7 8 14 13 19 17 6 3 12 4 16 4 4 0 10-1 16-4 9-6 19-16 29-30 10-15 20-34 29-56 24-60 40-139 43-225v0z m4-404c11 18 22 39 32 64 28 70 45 160 49 256h178c-17-150-121-274-259-320z" horiz-adv-x="1000" />

<glyph glyph-name="mundo2" unicode="&#xe93c;" d="M1000 355c-2 273-225 495-500 495-274 0-498-222-500-496 0-1 0-2 0-3v-2c0-1 0-2 0-3 2-274 226-496 500-496 274 0 498 222 500 495 0 1 0 3 0 4 0 2 0 5 0 6z m-676 386c-40-58-70-134-87-223-27-6-53-13-77-21-28-11-53-21-73-32 35 123 122 224 237 276z m-252-390c0 19 35 51 112 77 13 5 27 9 42 13-3-29-5-60-5-91s2-62 5-91c-15 4-29 9-42 13-77 27-112 59-112 79z m16-115c20-11 44-22 73-31 23-8 49-15 76-22 18-88 48-165 88-222-116 52-203 152-237 275z m376-307c-38 15-75 54-104 110-20 38-36 82-47 130 48-7 99-11 152-12v-228h-1z m0 300c-58 1-113 6-164 15-4 35-7 70-7 107s3 72 7 106c51 8 106 14 164 16v-244z m0 315c-52-1-103-5-151-12 11 48 27 92 46 130 30 56 67 95 105 110v-228h0z m448-79c-20 11-44 22-73 32-23 7-49 15-76 21-18 89-48 166-88 223 116-52 203-153 237-276z m-376 307c38-15 75-54 104-110 20-38 36-82 47-130-48 7-99 11-152 12v228h1z m0-299c58-2 114-7 164-16 5-35 7-70 7-106s-2-73-7-107c-50-8-106-14-164-15v244z m0-544v228c53 1 103 5 151 12-11-47-27-92-46-130-30-56-67-95-105-110z m140 32c40 57 70 134 88 222 27 6 52 13 76 22 29 10 54 20 73 31-35-123-122-223-237-275z m140 312c-13-5-27-9-41-13 3 30 4 60 4 91s-2 62-4 91c15-4 28-8 41-12 78-27 112-58 112-78 0-20-34-53-112-79z" horiz-adv-x="1000" />

<glyph glyph-name="opciones" unicode="&#xe93d;" d="M212 647v82c0 25-20 45-45 45s-46-20-46-45v-82c-70-20-121-84-121-161s51-140 121-160v-355c0-25 21-45 46-45s45 20 45 45v355c70 20 121 84 121 160 0 77-51 141-121 161z m-45-236c-42 0-76 34-76 75s34 76 76 76c41 0 75-34 75-76s-34-75-75-75z m379-37v355c0 25-21 45-46 45s-45-20-45-45v-355c-70-20-122-84-122-160s52-141 122-161v-82c0-25 20-45 45-45s46 20 46 45v82c69 20 121 85 121 161s-52 140-121 160z m-46-236c-42 0-76 34-76 76s34 75 76 75 76-34 76-75-34-76-76-76z m379 509v82c0 25-20 45-46 45s-45-20-45-45v-82c-70-20-121-84-121-161 0-76 51-140 121-160v-355c0-25 20-45 45-45s46 20 46 45v355c70 20 121 84 121 160 0 77-51 141-121 161z m-46-236c-41 0-75 34-75 75s34 76 75 76c42 0 76-34 76-76s-34-75-76-75z" horiz-adv-x="1000" />

<glyph glyph-name="descargar" unicode="&#xe93e;" d="M906 274c30 0 53-24 53-53v-287c0-29-23-53-53-53h-816c-29 0-55 24-55 53v287c0 29 26 53 55 53s53-24 53-53v-232h711v232c0 29 23 53 52 53z m-445-119l-215 215c-21 21-21 52 0 74s53 21 74 0l125-123v457c0 29 24 53 53 53s53-24 53-53v-457l123 123c21 21 55 21 76 0s22-53 0-74l-215-215c-10-10-23-16-37-16s-27 6-37 16z" horiz-adv-x="1000" />

<glyph glyph-name="editar" unicode="&#xe93f;" d="M989 580l-259 259c-8 7-17 11-27 11s-19-4-26-11l-677-676v-313h313l676 677c7 7 11 17 11 26 0 10-4 19-11 27z m-895-636v152l152-152h-152z m236 48l-187 188 433 434 188-188-434-434z m500 501l-187 187 60 61 188-188-61-60z" horiz-adv-x="1000" />

<glyph glyph-name="pin-nuevo" unicode="&#xe940;" d="M663 606c-42 42-99 68-163 68-63 0-121-26-163-68-42-41-68-99-68-163 0-63 26-121 68-163 42-41 100-67 163-67 0 0 0 0 0 0 64 0 121 26 163 67 42 42 68 100 68 163 0 64-26 122-68 163z m-62-263c-26-26-62-42-101-42-39 0-75 16-101 42-26 26-41 61-42 100 1 40 16 75 42 101 26 26 62 42 101 42 39 0 75-16 101-42 26-26 42-61 42-101 0-39-16-74-42-100z m215-131c2 2 3 4 4 6 20 38 37 77 50 115 12 37 20 74 20 110 0 108-44 205-114 276-71 70-169 114-276 114-107 0-205-44-275-114-71-71-115-168-115-276 0-29 5-59 14-89 15-53 41-109 71-163 46-80 103-158 156-217 26-29 51-54 74-72 11-9 22-17 34-23 6-3 12-6 18-8 7-2 14-4 23-4 14 0 24 4 33 8 17 7 32 18 49 32 20 18 43 40 66 66 25-67 90-115 165-115 98 0 177 79 177 177 0 97-77 175-174 177z m-232-179c-24-27-46-48-64-62-8-7-15-12-20-14-1 0-3 1-4 2-8 5-21 15-35 28-24 22-53 54-83 92-45 56-91 124-125 190-17 33-31 66-40 96-10 29-15 57-15 78 0 84 34 159 89 214 55 54 130 88 213 88 83 0 159-34 213-88 55-55 89-130 89-214 0-18-4-41-11-65-12-44-34-94-63-143-42-74-96-148-144-202z m301-29h-41v-40c0-17-14-31-31-31-17 0-30 14-30 31v40h-41c-17 0-31 14-31 31 0 17 14 31 31 31h41v41c0 17 13 31 30 31 17 0 31-14 31-31v-41h41c17 0 30-14 30-31s-13-31-30-31z" horiz-adv-x="1000" />

<glyph glyph-name="pin2" unicode="&#xe941;" d="M500 824c-142 0-256-115-256-257 0-129 95-234 219-252v-444h74v444c124 18 220 123 220 252 0 142-115 257-257 257z m-73-220c-41 0-74 33-74 73s33 74 74 74c40 0 73-33 73-74s-33-73-73-73z" horiz-adv-x="1000" />

<glyph glyph-name="pin3" unicode="&#xe942;" d="M500 850c-220 0-399-179-399-399s358-601 399-601c43 0 399 381 399 601 0 220-179 399-399 399z m-286-387c0 158 129 287 287 287 159 0 288-129 288-287 0-83-35-158-91-210-1-1-7-4-9 1l-48 149c-7 19-26 30-45 30-10 0-11-1-17-1h-172c-22 0-38-10-45-29l-49-148c-2-6-7-3-7-3-57 53-92 127-92 211z m289 231c65 0 118-52 118-117s-53-117-118-117c-66 0-119 53-119 117s53 117 119 117z" horiz-adv-x="1000" />

<glyph glyph-name="pin4" unicode="&#xe943;" d="M986 549l-287 287c-9 9-22 13-34 14-13 0-25-6-33-15-51-53-76-126-68-198l-94-95c-45 17-94 27-142 27-104 0-202-41-276-115l-7-6c-9-9-14-21-14-34 0-12 5-24 14-33l192-192-230-288c-4-6-7-12-7-20 0-17 14-31 31-31 8 0 14 2 20 7l288 230 192-192c9-9 21-14 33-14 13 0 25 5 33 14l7 7c111 110 144 274 88 418l95 94c73-7 145 17 198 68 9 8 15 20 15 33 0 13-5 25-14 34z m-173-43c-11 0-22 2-33 4-16 3-32-2-43-13l-134-134c-14-14-18-36-9-54 51-103 38-224-31-313l-417 417c52 40 115 62 182 62 45 0 91-11 131-31 18-9 40-5 54 9l134 134c11 11 16 27 13 43-2 11-4 22-4 33 0 23 6 46 16 67l208-208c-21-10-44-16-67-16z" horiz-adv-x="1000" />

<glyph glyph-name="poligono" unicode="&#xe944;" d="M289-35v0h-24l-233 404 233 404h466l233-404-233-404-442 0z m-146 404l178-307 355 0 177 307-177 308h-355l-178-308z" horiz-adv-x="1000" />

<glyph glyph-name="posicion" unicode="&#xe945;" d="M648 163c-21-31-41-58-58-80 166-10 274-45 314-72-47-31-187-75-404-75s-357 44-404 75c40 27 148 62 314 72-17 22-37 49-58 80-204-20-352-81-352-152 0-88 224-159 500-159 276 0 500 71 500 159 0 71-148 132-352 152z m-200-58c-14 9-27 21-42 35v0c-28 29-60 66-90 109v0c-60 85-117 185-118 275v0c0 165 134 299 299 299v0c164 0 298-134 298-299v0c-1-79-45-165-95-243v0c-52-78-109-144-154-176v0c-14-9-26-17-49-19v0 42-42c-24 2-36 10-49 19v0z m-167 419c0-36 22-96 56-154v0c34-59 77-117 114-156v0c18-19 36-34 46-41v0c0 0 0 1 1 1v0c7 5 18 14 30 26v0c24 24 54 58 81 97v0c57 77 104 175 103 227v0c0 118-97 215-215 215v0c-119 0-215-97-216-215v0z m35 0c0 99 81 180 181 180v0-83c-54 0-97-44-97-97v0c0-53 43-97 97-97v0c53 0 96 44 96 97v0c0 53-43 97-96 97v0 83c99 0 180-80 180-180v0c0-100-81-180-180-181v0c-100 1-181 81-181 181v0z" horiz-adv-x="1000" />

<glyph glyph-name="posicion2" unicode="&#xe946;" d="M857-7q0-35-34-64t-92-45-125-25-142-9-141 9-126 25-91 45-35 64q0 27 19 49t51 37 66 25 73 17q14 2 26-6t15-23q3-15-6-27t-23-15q-32-5-59-13t-43-14-27-13-15-11-5-7q2-6 15-15t41-18 63-18 90-14 112-6 113 6 89 14 64 18 41 19 15 15q-1 3-5 7t-15 10-27 13-43 14-59 13q-15 3-23 15t-6 27q2 14 14 23t27 6q40-7 73-17t66-25 51-37 18-49z m-214 500v-214q0-15-11-25t-25-11h-36v-214q0-15-10-25t-25-11h-143q-15 0-25 11t-11 25v214h-36q-14 0-25 11t-10 25v214q0 29 21 50t50 21h214q30 0 51-21t21-50z m-54 214q0-52-36-88t-89-37-88 37-37 88 37 89 88 36 89-36 36-89z" horiz-adv-x="1000" />

<glyph glyph-name="bandera" unicode="&#xe947;" d="M884 790c-14 8-32 9-46 1-37-19-74-35-144-35-78 0-114 20-156 42-47 24-100 52-200 52-70 0-116-13-154-30-7 18-24 30-43 30-26 0-47-21-47-47v-906c0-26 21-47 47-47s47 21 47 47v383c39 21 76 39 150 39 77 0 114-19 156-42 47-24 99-52 200-52 91 0 142 23 187 46 16 8 25 24 25 41v438c0 16-8 31-22 40z m-71-448c-30-14-64-23-119-23-78 0-114 19-156 41-47 25-100 53-200 53-68 0-113-13-150-29v334c39 21 76 38 150 38 77 0 114-19 156-41 47-25 99-52 200-52 50 0 87 6 119 16v-337z" horiz-adv-x="1000" />

<glyph glyph-name="posicion4" unicode="&#xe948;" d="M969 569c-129-48-227-81-313-188-76-95-187-128-312-65v-341h-63v844c0 17 14 31 32 31 17 0 31-14 31-31 69-101 190-123 312-125 188-3 313-125 313-125z m-563-415v-63c74-15 125-47 125-85 0-52-98-94-218-94-121 0-219 42-219 94 0 38 51 70 125 85v63c-114-19-188-74-188-148 0-92 116-156 282-156 165 0 281 64 281 156 0 74-74 129-188 148z" horiz-adv-x="1000" />

<glyph glyph-name="posicion5" unicode="&#xe949;" d="M632 486l58-207c3-9 1-18-4-27s-12-14-21-17l-34-9 78-142 45-39c2-9 1-18-4-27s-12-14-21-17l-19-5c0 0-12-3-21-2s-19 6-19 6l-41 21-55 84 59-114c0 0 5-8 1-20-3-11-12-13-12-13l-45-13c-9-2-18-1-27 4-9 5-14 12-17 21l-109 198-34-9c-9-3-18-2-27 3s-15 12-17 22l-58 206c-5 19-3 37 7 54s24 29 43 34l207 58c18 5 37 3 54-7s28-24 33-43z m-109 192c10-33 6-65-11-95-17-30-42-50-76-59s-65-5-95 11c-30 17-49 43-58 76s-6 65 11 95c17 30 42 50 75 59s65 5 95-12c30-17 50-42 59-75z" horiz-adv-x="1000" />

<glyph glyph-name="posicion6" unicode="&#xe94a;" d="M436 565c60 22 91 89 68 150-22 60-90 91-150 68-60-22-91-89-68-150 22-60 89-91 150-68z m260-191c13-8 30-10 44-5 10 4 19 10 24 19 8 11 10 24 8 37-3 13-11 24-22 32l-56 37c-13 8-34 22-48 29l-81 49c-13 8-25 10-42 4-1 0-138-51-138-51l-106 26c-13 3-30 8-37 11l-18 8c-12 5-25 5-37 1-12-5-23-15-28-27-5-13-5-26 0-38 5-12 14-22 27-27l18-8c12-5 34-12 51-16l140-34 73-153c0 0 0-1 0-1l42-151c6-22 21-50 37-67l74-80c15-16 37-21 57-14 6 3 12 6 17 11 10 9 16 22 16 36 1 14-4 27-13 37l-74 81c-5 5-12 18-14 24l-27 101 15 6 64-102c12-18 31-31 53-34 12-2 25-1 37 4 8 3 16 7 23 13l44 38c22 19 24 52 6 74-14 16-38 22-58 14-6-2-11-5-16-9l-18-16-58 91-45 93c4-2 7-4 9-6l57-37z" horiz-adv-x="1000" />

<glyph glyph-name="posicion7" unicode="&#xe94b;" d="M857-7c0-24-11-45-34-64s-54-33-92-45c-38-11-80-20-125-25s-93-9-142-9c-48 0-96 3-141 9s-88 14-126 25c-38 12-68 27-91 45s-35 40-35 64c0 18 7 35 19 49s29 27 51 37c21 10 43 19 66 25s46 12 73 17c9 2 18 0 26-6s13-14 15-23c2-10 0-19-6-27s-13-13-23-15c-22-3-41-8-59-13s-32-9-43-14-20-9-27-13c-7-4-13-8-15-11s-5-5-5-7c1-4 6-9 15-15s22-11 41-18c18-6 39-13 63-18s54-10 90-14c35-4 73-6 112-6s77 2 113 6c35 4 65 8 89 14s46 12 64 18c18 7 32 13 41 19s14 11 15 15c-1 2-2 4-5 7s-8 6-15 10c-8 5-17 9-27 13s-25 9-43 14-38 10-59 13c-10 2-18 7-23 15s-8 17-6 27c1 9 6 17 14 23s17 8 27 6c26-5 51-10 73-17s44-15 66-25c22-10 39-22 51-37s18-31 18-49z m-214 500v-214c0-10-4-18-11-25s-15-11-25-11h-36v-214c0-10-3-18-10-25s-16-11-25-11h-143c-10 0-18 3-25 11s-11 15-11 25v214h-36c-9 0-18 3-25 11s-10 15-10 25v214c0 20 7 36 21 50s30 21 50 21h214c20 0 37-7 51-21s21-30 21-50z m-54 214c0-34-12-64-36-88s-54-37-89-37-64 12-88 37c-24 24-37 54-37 88s13 64 37 89c24 24 54 36 88 36s64-12 89-36c24-25 36-54 36-89z m282-343c0 15-6 28-16 38s-24 16-39 16c-14 0-27-5-38-16s-16-23-16-38c0-15 6-28 16-38s24-16 38-16c15 0 28 5 39 16s16 23 16 38z m54 0c0-15-3-28-7-38l-77-164c-2-4-6-8-10-10s-9-5-15-5-9 2-14 5c-4 2-8 6-10 10l-77 164c-4 10-7 23-7 38 0 30 11 55 32 77s47 31 76 31c30 0 56-10 77-31s32-47 32-77z m-724 263c0 15-5 28-16 39s-23 16-38 16c-15 0-28-6-38-16s-16-24-16-39c0-15 5-27 16-38s23-16 38-16c15 0 28 6 38 16s16 23 16 38z m54 0c0-15-2-28-7-37l-77-164c-2-5-5-8-10-11s-9-4-14-4-10 1-14 4c-5 3-8 6-10 11l-77 164c-5 9-7 22-7 37 0 30 10 56 31 77s47 32 77 32c30 0 55-11 76-32s32-47 32-77z" horiz-adv-x="1000" />

<glyph glyph-name="prismaticos" unicode="&#xe94c;" d="M178 777h133c8 0 14-6 14-13v-53h35c7 0 13-6 13-13v-117h56c8 14 22 22 38 22h66c16 0 30-8 38-22h56v117c0 7 6 13 14 13h35v53c0 7 6 13 13 13h133c8 0 14-6 14-13v-53h34c8 0 14-5 14-13l33-540h26c8 0 14-6 14-14v-188c0-7-6-13-14-13h-342c-7 0-13 6-13 13v188c0 8 6 14 13 14h26v88h-56c-8-13-22-21-38-21h-66c-16 0-30 8-38 21h-56v-88h26c7 0 13-6 13-14v-188c0-7-6-13-13-13h-342c-7 0-14 6-14 13v188c0 8 7 14 14 14h27l32 540c1 8 6 13 14 13h34v53c0 7 7 13 14 13z m120-27h-106v-39h106v39z m511 0h-106v-39h106v39z m-631-66h-35l-32-526h235v526h-168z m511 0h-35v-526h235l-32 526-168 0z m-142-115c-3 4-8 7-14 7h-66c-5 0-10-3-13-7 0-2-1-5-2-7-1-3-2-6-2-10v-276c0-4 1-7 2-10 1-3 2-5 2-7 3-5 8-7 13-7h66c6 0 11 2 14 7 0 2 0 4 1 7 1 3 2 6 2 10v276c0 4-1 7-2 10-1 2-1 5-1 7z m-124-15h-50v-281h50v281z m204 0h-50v-281h50v281z m-531-423h-25v-161h314v161h-289z m545 0h-26v-161h314v161h-288z m-40-202c-15 0-27 12-27 27v0 188c0 16 12 28 27 28v0l12 0v60h-34c-11-13-28-21-46-21v0h-66c-18 0-34 8-45 21v0h-35v-60h12c15 0 27-12 27-28v0-188c0-15-12-27-27-27v0h-342c-15 0-28 12-28 27v0 188c0 16 13 28 28 28v0l13 0 32 527c1 15 13 26 28 26v0h20v39c0 15 13 27 28 27v0 0h133c15 0 28-12 28-27v0l0-39h21c15 0 27-12 27-27v0-103h35c11 14 27 22 45 22v0h66c18 0 35-8 46-22v0h34v103c0 15 12 27 28 27v0h21v39c0 15 12 27 27 27v0h133c16 0 28-12 28-27v0-39h20c15 0 27-11 28-26v0l32-527h13c15 0 28-12 28-28v0-188c0-15-13-27-28-27v0l-342 0z m28 55h286v133h-286v-133z m-544 0h286v133h-286v-133z m41 188h206v498h-176l-30-498z m542 0h206l-30 498-176 0v-498h0z m-231 88l2-4 1 4c-2 2-2 5-3 8v0-8h0z m124-4l2 4h0v8c0-3-1-6-2-8v0l0-4z m-28 10c0 0 0 0 0 0v0c1 2 1 4 2 6v0c1 1 1 2 1 4v0 276c0 1 0 3-1 4v0c-1 2-1 4-2 6v0c0 0 0 0 0 0v0h-66c0 0 0 0 0 0v0c0-2-1-4-2-6v0c-1-1-1-3-1-4v0-276c0-2 0-3 1-4v0c1-2 2-4 2-6v0c0 0 0 0 0 0v0l66 0z m58 21h22v253h-22v-253z m-204 0h22v253l-22 0v-253z m240 267v0z m-204 0v0z m14 6c1 3 1 5 3 8v0l-1 3-2-4h0v-7h0z m126 0v7h0l-2 4 0-3c1-3 2-5 2-8v0z m-16 9v0z m142 115v0z m28 41h78v11l-78 0v-11z m-511 0h78v11h-78v-11z m603 25v0z m-511 0v0z" horiz-adv-x="1000" />

<glyph glyph-name="regla" unicode="&#xe94d;" d="M727 830l-691-692 259-259 692 692-260 259z m-432-865l-173 173 65 65 86-86 44 43-87 86 43 44 44-44 43 44-43 43 43 43 86-86 44 43-87 86 43 44 44-44 43 44-43 43 43 43 86-86 44 43-87 86 43 44 44-44 43 44-43 43 64 65 173-173-605-606z" horiz-adv-x="1000" />

<glyph glyph-name="reglas" unicode="&#xe94e;" d="M0 823v-946h358v588h642v358h-1000z m299-886h-240v54h79v60h-79v59h139v59h-139v60h79v59h-79v60h79v59h-79v58h240v-528z m642 587h-55v79h-59v-79h-59v138h-60v-138h-59v79h-60v-79h-59v79h-60v-79h-59v138h-60v-138h-59v79h-59v-79h-60v79h-59v-79h-55v239h882v-239z" horiz-adv-x="1000" />

<glyph glyph-name="ruta" unicode="&#xe94f;" d="M802 454c0 0 0 0 0 0 0 0 0 0 0 0h0z m-46 25c-9 13-17 27-26 42h-597c-33 0-59-27-59-59v-71c0-33 26-59 59-59h349c3 0 6-3 6-6v-98c0-34 28-62 62-62h158c7 0 13-6 13-13v-223c0-7-6-13-13-13h-340c-11-19-22-38-33-56-3-4-6-8-10-11h383c44 0 80 36 80 80v223c0 44-36 80-80 80h-153v93c0 40-33 72-73 72h-342v56h662c-19 0-36 9-46 25z m-467-247c-69 0-125-56-125-125 0-52 73-173 107-228 4-6 11-10 18-10 7 0 14 4 18 10 34 55 107 176 107 228 0 69-56 125-125 125z m0-186c-31 0-56 25-56 56 0 31 25 56 56 56 31 0 56-25 56-56 0-31-25-56-56-56z m513 804c-69 0-125-56-125-125 0-52 72-173 107-228 4-6 10-10 18-10 7 0 14 4 17 10 35 55 107 176 107 228 0 69-55 125-124 125z m0-186c-31 0-56 25-56 56 0 31 25 56 56 56 31 0 56-25 56-56 0-31-25-56-56-56z" horiz-adv-x="1000" />

<glyph glyph-name="brujula" unicode="&#xe950;" d="M500 850c-276 0-500-224-500-500s224-500 500-500c276 0 500 224 500 500s-224 500-500 500z m0-906c-224 0-406 182-406 406 0 224 182 406 406 406 224 0 406-182 406-406s-182-406-406-406z m-233 173c0 0 265 95 318 148 53 53 148 318 148 318s-265-95-318-148-148-318-148-318z m189 258l69-69c17-17-155-86-155-86s69 172 86 155z" horiz-adv-x="1000" />

<glyph glyph-name="glyph-4" unicode="&#xe951;" d="M500 750v0c19 0 35-22 35-50v-100c0-28-16-50-35-50v0c-19 0-35 22-35 50v100c0 28 16 50 35 50z" horiz-adv-x="1000" />

<glyph glyph-name="glyph-5" unicode="&#xe952;" d="M900 350v0c0-19-22-35-50-35h-100c-28 0-50 16-50 35v0c0 19 22 35 50 35h100c28 0 50-16 50-35z" horiz-adv-x="1000" />

<glyph glyph-name="glyph-6" unicode="&#xe953;" d="M846 150v0c-9-17-36-19-60-5l-87 50c-24 14-35 38-26 55v0c10 17 37 19 61 5l87-50c24-13 35-38 25-55z" horiz-adv-x="1000" />

<glyph glyph-name="glyph-7" unicode="&#xe954;" d="M700 4v0c-17-10-41 2-55 25l-50 87c-14 24-12 51 5 61v0c17 10 42-2 55-26l50-87c14-23 12-51-5-60z" horiz-adv-x="1000" />

<glyph glyph-name="glyph-8" unicode="&#xe955;" d="M500-50v0c-19 0-35 22-35 50v100c0 28 16 50 35 50v0c19 0 35-22 35-50v-100c0-28-16-50-35-50z" horiz-adv-x="1000" />

<glyph glyph-name="glyph-9" unicode="&#xe956;" d="M300 4v0c-17 9-19 37-5 60l50 87c14 24 38 36 55 26v0c17-10 19-37 5-61l-50-87c-13-23-38-35-55-25z" horiz-adv-x="1000" />

<glyph glyph-name="glyph" unicode="&#xe957;" d="M154 150v0c-10 17 2 42 25 55l87 50c24 14 51 12 61-5v0c10-17-2-41-26-55l-87-50c-23-14-51-12-60 5z" horiz-adv-x="1000" />

<glyph glyph-name="glyph-3" unicode="&#xe958;" d="M100 350v0c0 19 22 35 50 35h100c28 0 50-16 50-35v0c0-19-22-35-50-35h-100c-28 0-50 16-50 35z" horiz-adv-x="1000" />

<glyph glyph-name="glyph-2" unicode="&#xe959;" d="M154 550v0c9 17 37 19 60 5l87-50c24-13 36-38 26-55v0c-10-17-37-19-61-5l-87 50c-23 14-35 38-25 55z" horiz-adv-x="1000" />

<glyph glyph-name="glyph-1" unicode="&#xe95a;" d="M300 696v0c17 10 42-1 55-25l50-87c14-24 12-51-5-61v0c-17-9-41 2-55 26l-50 87c-14 24-12 51 5 60z" horiz-adv-x="1000" />

<glyph glyph-name="subir" unicode="&#xe95b;" d="M906 274c30 0 53-24 53-53v-287c0-29-23-53-53-53h-816c-29 0-55 24-55 53v287c0 29 26 53 55 53s53-24 53-53v-232h711v232c0 29 23 53 52 53z m-586 252c-21-22-52-22-74 0s-21 53 0 74l215 215c10 10 23 16 37 16s27-6 37-16l215-215c22-21 22-53 0-74-10-10-23-16-37-16s-29 6-39 16l-123 123v-457c0-29-24-53-53-53s-53 24-53 53v457l-125-123z" horiz-adv-x="1000" />

<glyph glyph-name="tamano" unicode="&#xe95c;" d="M713 614h-663c-28 0-50-22-50-50v-663c0-27 22-50 50-50h663c27 0 50 23 50 50v663c0 28-23 50-50 50z m-50-663h-563v564h563v-564z m327 61h-54v580h54c4 0 8 3 9 7 2 3 1 7-2 10l-87 87c-4 4-10 4-14 0l-87-87c-3-3-4-7-2-10 1-4 5-7 9-7h54v-580h-54c-4 0-8-2-9-6-2-4-1-8 2-11l87-87c4-4 10-4 14 0l87 87c3 3 4 7 2 11-1 4-5 6-9 6z m-846 646c3-3 7-4 11-2 3 1 6 5 6 9v54h580v-54c0-4 2-8 6-9 4-2 8-1 11 2l87 87c4 4 4 10 0 14l-87 87c-3 3-7 3-11 2-4-2-6-5-6-9v-54h-580v54c0 4-3 7-6 9-4 1-8 1-11-2l-87-87c-4-4-4-10 0-14l87-87z" horiz-adv-x="1000" />

<glyph glyph-name="temperatura" unicode="&#xe95d;" d="M527 193v298c0 14-12 26-27 26-15 0-27-12-27-26v-298c-46-12-80-54-80-103 0-59 48-107 107-107 59 0 107 48 107 107 0 49-34 91-80 103z m148 84v398c0 97-78 175-175 175s-175-78-175-175v-398c-46-45-75-107-75-177 0-138 112-250 250-250 138 0 250 112 250 250 0 70-29 132-75 177z m-175-345c-86 0-157 70-157 157 0 58 32 108 79 135v466c0 43 35 78 78 78s78-35 78-78v-466c47-27 79-77 79-135 0-87-71-157-157-157z" horiz-adv-x="1000" />

<glyph glyph-name="texto" unicode="&#xe95e;" d="M891 638c10-10 19-25 26-42s12-35 12-50v-642c0-15-6-28-16-38s-23-16-38-16h-750c-15 0-27 5-38 16s-16 23-16 38v892c0 15 6 28 16 38s23 16 38 16h500c15 0 31-4 49-11s32-16 43-27l174-174z m-245 111v-181h181c-3 9-6 16-10 20l-151 151c-4 4-11 7-20 10z m197-814v558h-218c-15 0-27 5-38 16s-16 23-16 37v218h-414v-829h686z m-584 461c0 6 2 11 5 15s9 5 15 5h442c6 0 11-2 15-5s5-9 5-15v-40c0-6-1-11-5-15s-9-5-15-5h-442c-6 0-11 2-15 5-3 4-5 9-5 15v40z m462-141c6 0 11-2 15-5s5-9 5-15v-40c0-6-1-11-5-15s-9-5-15-5h-442c-6 0-11 2-15 5s-5 9-5 15v40c0 6 2 11 5 15s9 5 15 5h442z m0-161c6 0 11-2 15-5s5-9 5-15v-40c0-6-1-11-5-14s-9-6-15-6h-442c-6 0-11 2-15 6s-5 8-5 14v40c0 6 2 11 5 15s9 5 15 5h442z" horiz-adv-x="1000" />

<glyph glyph-name="usuario" unicode="&#xe95f;" d="M500 850c-276 0-500-224-500-500s224-500 500-500c276 0 500 224 500 500s-224 500-500 500z m0-149c91 0 165-75 165-166 0-91-74-165-165-165-91 0-165 74-165 165 0 91 74 166 165 166z m0-720c-91 0-175 33-239 88-16 13-25 33-25 53 0 93 75 167 168 167h192c93 0 168-74 168-167 0-20-9-40-25-53-64-55-148-88-239-88z" horiz-adv-x="1000" />

<glyph glyph-name="usuario2" unicode="&#xe960;" d="M693 331h-40c78 50 129 138 129 237 0 155-126 282-282 282s-282-127-282-282c0-99 51-187 129-237h-40c-103 0-188-84-188-188v-262c0-17 14-31 32-31h699c17 0 31 14 31 31v262c0 104-84 188-188 188z m-413 237c0 121 99 220 220 220 121 0 220-99 220-220 0-121-99-220-220-220-121 0-220 99-220 220z m311-267l-91-91-91 91c28-10 59-15 91-15s63 5 91 15z m227-389h-85v150c0 18-14 32-31 32s-31-14-31-32v-150h-342v150c0 18-14 32-31 32s-31-14-31-32v-150h-85v231c0 69 56 125 125 125h46l125-125c6-6 14-9 22-9s16 3 22 9l125 125h46c69 0 125-56 125-125v-231z" horiz-adv-x="1000" />

<glyph glyph-name="zoom" unicode="&#xe961;" d="M849 174c145 145 145 380 0 525-145 145-380 145-525 0-123-123-141-305-56-448 0 0 6-10-2-19-47-47-189-189-189-189-38-38-47-91-14-124l6-6c33-33 86-24 124 13 0 0 142 142 189 190 9 8 19 2 19 2 143-85 325-67 448 56z m-457 68c-106 107-106 281 0 388 107 107 281 107 388 0 107-107 107-281 0-388-107-106-281-106-388 0z m24 216c-5 0-10 1-15 4-19 8-28 30-20 50 52 122 194 180 316 128 20-8 29-31 20-50-8-20-30-29-50-21-83 36-180-4-216-87-6-15-20-24-35-24z" horiz-adv-x="1000" />

<glyph glyph-name="ayuda" unicode="&#xe962;" d="M901 595c0 86-70 156-156 156h-490c-86 0-156-70-156-156v-490c0-86 70-156 156-156v0h490c86 0 156 70 156 156v490l0 0z m-80-491c0-21-8-39-22-53-14-14-33-22-54-22l-490 0c-21 0-40 8-54 22-14 14-22 33-22 54l0 490c0 21 8 40 22 54 14 14 33 22 54 22h490c21 0 40-8 54-22 14-14 22-33 22-54v-491z m-321 491v-15c0 0 0 0 0 0v15c-75 0-135-60-135-135 0-22 18-40 40-40 22 0 40 18 40 40 0 15 6 29 16 39 10 10 24 16 39 16 15 0 29-6 39-16 10-10 16-24 16-39 0-7-2-12-8-20-6-8-16-16-29-27-12-10-26-22-38-36-11-15-20-34-20-56v-47c0-22 18-40 40-40 22 0 40 18 40 40v47c0 0 0 1 1 3 1 2 5 7 10 11 5 5 11 10 18 16 13 11 30 24 43 42 13 17 23 40 23 67 0 0 0 0 0 0 0 75-60 135-135 135z m0-396c-26 0-47-21-47-47 0-26 21-47 47-47 26 0 47 21 47 47 0 26-21 47-47 47z" horiz-adv-x="1000" />

<glyph glyph-name="zoom-mas" unicode="&#xe963;" d="M849 174c145 145 145 380 0 525-145 145-380 145-525 0-123-123-141-305-56-448 0 0 6-10-2-19-47-47-189-189-189-189-38-38-47-91-14-124l6-6c33-33 86-24 124 13 0 0 142 142 189 190 9 8 19 2 19 2 143-85 325-67 448 56z m-457 68c-106 107-106 281 0 388 107 107 281 107 388 0 107-107 107-281 0-388-107-106-281-106-388 0z m341 248h-83c0 0-8 1-8 9 0 20 0 82 0 82 0 16-13 29-29 29h-49c-16 0-29-13-29-29 0 0 0-61 0-82 0-8-9-9-9-9h-82c-17 0-30-13-30-30v-48c0-17 13-30 30-30h82c0 0 9 0 9-9 0-20 0-82 0-82 0-16 13-29 29-29h49c16 0 29 13 29 29 0 0 0 62 0 83 0 8 9 8 9 8h82c17 0 30 13 30 30v48c0 17-13 30-30 30z" horiz-adv-x="1000" />

<glyph glyph-name="zoom-menos" unicode="&#xe964;" d="M849 174c145 145 145 380 0 525-145 145-380 145-525 0-123-123-141-305-56-448 0 0 6-10-2-19-47-47-189-189-189-189-38-38-47-91-14-124l6-6c33-33 86-24 124 13 0 0 142 142 189 190 9 8 19 2 19 2 143-85 325-67 448 56z m-457 68c-106 107-106 281 0 388 107 107 281 107 388 0 107-107 107-281 0-388-107-106-281-106-388 0z m371 170c0-17-13-30-30-30h-289c-17 0-30 13-30 30v48c0 17 13 30 30 30h289c17 0 30-13 30-30v-48z" horiz-adv-x="1000" />

<glyph glyph-name="pin5" unicode="&#xe965;" d="M710 730c-64 64-154 105-252 105 0 0 0 0 0 0 0 0-1 0-1 0-98 0-187-41-252-105-65-65-105-154-105-253 0 0 0 0 0 0 0-13 1-27 4-40 2-14 5-28 9-42 7-24 16-49 27-74 11-25 24-50 38-75 21-37 45-73 69-107 24-33 49-64 74-91 12-14 23-26 35-37 11-12 22-21 33-30 10-8 20-16 31-21 5-3 10-6 17-8 6-2 12-3 21-3 6 0 11 1 16 2 5 1 9 3 14 5 7 4 15 8 22 13 7 5 15 11 23 17 13 11 27 25 42 40 14 15 29 32 45 51 23 28 46 59 69 92 22 32 43 67 62 102 9 17 17 35 25 52 8 18 15 35 20 53 6 17 11 34 14 51 3 17 5 34 5 50 0 0 0 0 0 0 0 99-40 188-105 253z m-252-475c-135 0-245 109-245 244 0 135 110 244 245 244 134 0 244-109 244-244 0-135-110-244-244-244z" horiz-adv-x="917" />

<glyph glyph-name="pin-nuevo2" unicode="&#xe966;" d="M710 730c-64 64-154 105-252 105 0 0 0 0 0 0 0 0-1 0-1 0-98 0-187-41-252-105-65-65-105-154-105-253 0 0 0 0 0 0 0-13 1-27 4-40 2-14 5-28 9-42 7-24 16-49 27-74 11-25 24-50 38-75 21-37 45-73 69-107 24-33 49-64 74-91 12-14 23-26 35-37 11-12 22-21 33-30 10-8 20-16 31-21 5-3 10-6 17-8 6-2 12-3 21-3 6 0 11 1 16 2 5 1 9 3 14 5 7 4 15 8 22 13 7 5 15 11 23 17 13 11 27 25 42 40 14 15 29 32 45 51 23 28 46 59 69 92 22 32 43 67 62 102 9 17 17 35 25 52 8 18 15 35 20 53 6 17 11 34 14 51 3 17 5 34 5 50 0 0 0 0 0 0 0 99-40 188-105 253z m-252-475c-135 0-245 109-245 244s110 244 245 244 244-109 244-244c0-135-110-244-244-244z m19 393c-6 5-13 8-21 8-7 0-14-3-20-8-6-5-9-13-9-22l0-97-98 0c-8 0-16-4-21-9-5-6-9-13-8-21 0-7 3-14 8-20 5-6 13-10 21-10l98 0v-97c0-8 3-16 9-22 6-4 13-8 21-8 7 0 14 4 20 8 6 6 9 14 9 22v97h98c8 0 16 4 21 10 5 6 9 13 9 20 0 8-4 15-9 21-5 5-13 9-21 9h-98v97c0 9-3 17-9 22z" horiz-adv-x="917" />

<glyph glyph-name="pin-seleccionado" unicode="&#xe967;" d="M710 730c-64 64-154 105-252 105 0 0 0 0 0 0 0 0-1 0-1 0-98 0-187-41-252-105-65-65-105-154-105-253 0 0 0 0 0 0 0-13 1-27 4-40 2-14 5-28 9-42 7-24 16-49 27-74 11-25 24-50 38-75 21-37 45-73 69-107 24-33 49-64 74-91 12-14 23-26 35-37 11-12 22-21 33-30 10-8 20-16 31-21 5-3 10-6 17-8 6-2 12-3 21-3 6 0 11 1 16 2 5 1 9 3 14 5 7 4 15 8 22 13 7 5 15 11 23 17 13 11 27 25 42 40 14 15 29 32 45 51 23 28 46 59 69 92 22 32 43 67 62 102 9 17 17 35 25 52 8 18 15 35 20 53 6 17 11 34 14 51 3 17 5 34 5 50 0 0 0 0 0 0 0 99-40 188-105 253z m-252-475c-135 0-245 109-245 244 0 135 110 244 245 244s244-109 244-244c0-135-110-244-244-244z m150 244c0-83-67-151-150-151s-151 68-151 151c0 83 67 151 151 151s150-68 150-151z" horiz-adv-x="917" />

<glyph glyph-name="capas" unicode="&#xe968;" d="M938 850h-625c-35 0-63-28-63-62v-188h-187c-35 0-63-28-63-62v-626c0-34 28-62 63-62h625c34 0 62 28 62 62v188h188c34 0 62 28 62 63v625c0 34-28 62-62 62z m-282-906h-562v562h156v-343c0-35 28-63 63-63h343v-156z m250 250h-562v562h562v-562z" horiz-adv-x="1000" />
</font>
</defs>
</svg>
